<?xml version="1.0" encoding="UTF-8"?>
<!-- Created with Inkscape (http://www.inkscape.org/) -->
<svg width="20" height="20" version="1.1" viewBox="0 0 20 20" xml:space="preserve" xmlns="http://www.w3.org/2000/svg"><g transform="matrix(1.1731 0 0 1.1725 .00085929 .0007332)" fill="none"><path d="m12.5 11h-0.79l-0.28-0.27c1.2-1.4 1.82-3.31 1.48-5.34-0.47-2.78-2.79-5-5.59-5.34-4.23-0.52-7.79 3.04-7.27 7.27 0.34 2.8 2.56 5.12 5.34 5.59 2.03 0.34 3.94-0.28 5.34-1.48l0.27 0.28v0.79l4.25 4.25c0.41 0.41 1.08 0.41 1.49 0s0.41-1.08 0-1.49zm-6 0c-2.49 0-4.5-2.01-4.5-4.5s2.01-4.5 4.5-4.5 4.5 2.01 4.5 4.5-2.01 4.5-4.5 4.5z" fill="#464646"/></g></svg>
