<?xml version="1.0" encoding="UTF-8" standalone="no"?>
<!-- Created with Inkscape (http://www.inkscape.org/) -->

<svg
   width="20"
   height="20"
   viewBox="0 0 20 20"
   version="1.1"
   id="svg5"
   xml:space="preserve"
   inkscape:version="1.2.1 (9c6d41e410, 2022-07-14)"
   sodipodi:docname="busqueda.svg"
   xmlns:inkscape="http://www.inkscape.org/namespaces/inkscape"
   xmlns:sodipodi="http://sodipodi.sourceforge.net/DTD/sodipodi-0.dtd"
   xmlns="http://www.w3.org/2000/svg"
   xmlns:svg="http://www.w3.org/2000/svg"><sodipodi:namedview
     id="namedview7"
     pagecolor="#ffffff"
     bordercolor="#000000"
     borderopacity="0.25"
     inkscape:showpageshadow="2"
     inkscape:pageopacity="0.0"
     inkscape:pagecheckerboard="0"
     inkscape:deskcolor="#d1d1d1"
     inkscape:document-units="px"
     showgrid="false"
     inkscape:zoom="3.3993504"
     inkscape:cx="109.1385"
     inkscape:cy="54.716337"
     inkscape:window-width="1600"
     inkscape:window-height="829"
     inkscape:window-x="-8"
     inkscape:window-y="-8"
     inkscape:window-maximized="1"
     inkscape:current-layer="layer1" /><defs
     id="defs2" /><g
     inkscape:label="Capa 1"
     inkscape:groupmode="layer"
     id="layer1"><g
       style="fill:none"
       id="g18"
       transform="matrix(1.173149,0,0,1.1724618,8.592928e-4,7.3319583e-4)"><path
         d="m 12.4999,11 h -0.79 l -0.28,-0.27 c 1.2,-1.4 1.82,-3.31 1.48,-5.34 -0.47,-2.78 -2.79,-5 -5.59001,-5.34 -4.23,-0.52 -7.789997,3.04 -7.2699968,7.27 0.3399998,2.8 2.5599968,5.12 5.3399968,5.59 2.03,0.34 3.94,-0.28 5.34001,-1.48 l 0.27,0.28 v 0.79 l 4.25,4.25 c 0.41,0.41 1.08,0.41 1.49,0 0.41,-0.41 0.41,-1.08 0,-1.49 z m -6.00001,0 c -2.49,0 -4.5,-2.01 -4.5,-4.5 0,-2.49 2.01,-4.5 4.5,-4.5 2.49,0 4.50001,2.01 4.50001,4.5 0,2.49 -2.01001,4.5 -4.50001,4.5 z"
         fill="#464646"
         id="path9" /></g></g></svg>
