<?xml version="1.0" encoding="UTF-8" standalone="no"?>
<!-- Created with Inkscape (http://www.inkscape.org/) -->

<svg
   width="141"
   height="30.5"
   viewBox="0 0 141 30.5"
   version="1.1"
   id="svg5"
   xml:space="preserve"
   sodipodi:docname="logo.svg"
   inkscape:version="1.2.1 (9c6d41e410, 2022-07-14)"
   xmlns:inkscape="http://www.inkscape.org/namespaces/inkscape"
   xmlns:sodipodi="http://sodipodi.sourceforge.net/DTD/sodipodi-0.dtd"
   xmlns="http://www.w3.org/2000/svg"
   xmlns:svg="http://www.w3.org/2000/svg"><sodipodi:namedview
     id="namedview7"
     pagecolor="#ffffff"
     bordercolor="#000000"
     borderopacity="0.25"
     inkscape:showpageshadow="2"
     inkscape:pageopacity="0.0"
     inkscape:pagecheckerboard="0"
     inkscape:deskcolor="#d1d1d1"
     inkscape:document-units="px"
     showgrid="false"
     showguides="true"
     inkscape:zoom="11.238095"
     inkscape:cx="129.38136"
     inkscape:cy="16.90678"
     inkscape:window-width="1600"
     inkscape:window-height="829"
     inkscape:window-x="-8"
     inkscape:window-y="-8"
     inkscape:window-maximized="1"
     inkscape:current-layer="layer1"><sodipodi:guide
       position="-28.474576,15.372881"
       orientation="0,-1"
       id="guide225"
       inkscape:locked="false" /></sodipodi:namedview><defs
     id="defs2" /><g
     inkscape:label="Capa 1"
     inkscape:groupmode="layer"
     id="layer1"><g
       style="fill:none"
       id="g27"
       transform="matrix(1.4156178,0,0,2.2200821,90.753235,1.9794816)"><path
         d="M 7.77332,9.92003 C 6.96844,10.7134 6.03099,11.11 4.96098,11.11 4.29814,11.11 3.67317,10.9794 3.08608,10.718 2.50846,10.4567 2.00187,10.0974 1.56628,9.64003 1.14017,9.18269 0.799282,8.64603 0.543614,8.03003 0.297416,7.40469 0.174316,6.73269 0.174316,6.01402 c 0,-0.68133 0.1231,-1.32066 0.369298,-1.918 0.255668,-0.60666 0.601296,-1.134 1.036876,-1.582 0.44505,-0.45733 0.96585,-0.81666 1.56241,-1.078 0.59656,-0.27066 1.24519,-0.406 1.94591,-0.406 0.94692,0 1.75653,0.196 2.42884,0.588 0.68178,0.392 1.19312,0.91934 1.53401,1.582 l -1.46299,1.064 C 7.333,3.76936 6.97318,3.39136 6.50919,3.13002 6.05467,2.86869 5.55754,2.73802 5.0178,2.73802 c -0.42612,0 -0.81909,0.08867 -1.17892,0.266 -0.35036,0.17734 -0.65337,0.42 -0.90904,0.728 -0.24619,0.308 -0.44031,0.66267 -0.58235,1.064 -0.13257,0.40134 -0.19885,0.826 -0.19885,1.274 0,0.46667 0.07575,0.90534 0.22726,1.316 0.1515,0.40134 0.35982,0.75134 0.62496,1.05001 0.26514,0.29866 0.57762,0.53666 0.93745,0.714 0.3693,0.168 0.767,0.252 1.19311,0.252 0.97533,0 1.85596,-0.45267 2.6419,-1.358 v -0.7 H 5.74219 V 5.93002 H 9.39255 V 11.04 H 7.77332 Z"
         fill="#464646"
         id="path9" /><path
         d="m 14.3299,11.18 c -0.5966,0 -1.1363,-0.098 -1.6192,-0.294 -0.483,-0.2053 -0.8949,-0.4806 -1.2358,-0.826 -0.3408,-0.34531 -0.606,-0.74664 -0.7954,-1.20397 -0.1799,-0.45734 -0.2698,-0.938 -0.2698,-1.44201 0,-0.52266 0.0899,-1.01266 0.2698,-1.47 0.18,-0.46666 0.4404,-0.87266 0.7812,-1.218 0.3409,-0.35466 0.7528,-0.63466 1.2358,-0.84 0.4924,-0.20533 1.0416,-0.308 1.6476,-0.308 0.606,0 1.1458,0.10267 1.6192,0.308 0.483,0.20534 0.8901,0.48067 1.2216,0.826 0.3408,0.34534 0.5965,0.74667 0.767,1.204 0.1799,0.45734 0.2698,0.93334 0.2698,1.42801 0,0.12133 -0.0047,0.23799 -0.0142,0.35 0,0.112 -0.0094,0.20533 -0.0284,0.28 h -5.7525 c 0.0284,0.28933 0.0994,0.54599 0.2131,0.77 0.1136,0.224 0.2604,0.41533 0.4403,0.574 0.1799,0.15866 0.3835,0.28 0.6107,0.364 0.2273,0.084 0.464,0.126 0.7102,0.126 0.3788,0 0.7339,-0.08867 1.0653,-0.266 0.3409,-0.18667 0.5729,-0.42934 0.696,-0.72801 l 1.6334,0.44801 c -0.2746,0.56 -0.7149,1.02197 -1.3209,1.38597 -0.5966,0.3547 -1.3115,0.532 -2.1448,0.532 z m 1.9317,-4.42398 c -0.0473,-0.55066 -0.2557,-0.98933 -0.625,-1.316 -0.3598,-0.336 -0.8001,-0.504 -1.3209,-0.504 -0.2557,0 -0.4971,0.04667 -0.7244,0.14 -0.2178,0.084 -0.4119,0.20534 -0.5823,0.364 -0.1705,0.15867 -0.3125,0.35 -0.4262,0.574 -0.1041,0.224 -0.1657,0.47134 -0.1846,0.742 z"
         fill="#464646"
         id="path11" /><path
         d="m 22.8327,11.18 c -0.5965,0 -1.1363,-0.098 -1.6192,-0.294 -0.4829,-0.2053 -0.8948,-0.4806 -1.2357,-0.826 -0.3409,-0.34531 -0.606,-0.74664 -0.7954,-1.20397 -0.1799,-0.45734 -0.2699,-0.938 -0.2699,-1.44201 0,-0.52266 0.09,-1.01266 0.2699,-1.47 0.1799,-0.46666 0.4403,-0.87266 0.7812,-1.218 0.3409,-0.35466 0.7528,-0.63466 1.2357,-0.84 0.4924,-0.20533 1.0416,-0.308 1.6476,-0.308 0.6061,0 1.1458,0.10267 1.6193,0.308 0.4829,0.20534 0.8901,0.48067 1.2215,0.826 0.3409,0.34534 0.5965,0.74667 0.767,1.204 0.1799,0.45734 0.2699,0.93334 0.2699,1.42801 0,0.12133 -0.0048,0.23799 -0.0142,0.35 0,0.112 -0.0095,0.20533 -0.0285,0.28 h -5.7525 c 0.0284,0.28933 0.0995,0.54599 0.2131,0.77 0.1136,0.224 0.2604,0.41533 0.4403,0.574 0.1799,0.15866 0.3835,0.28 0.6108,0.364 0.2272,0.084 0.464,0.126 0.7102,0.126 0.3787,0 0.7338,-0.08867 1.0652,-0.266 0.3409,-0.18667 0.5729,-0.42934 0.696,-0.72801 l 1.6334,0.44801 c -0.2746,0.56 -0.7149,1.02197 -1.3209,1.38597 -0.5966,0.3547 -1.3115,0.532 -2.1448,0.532 z m 1.9317,-4.42398 c -0.0473,-0.55066 -0.2556,-0.98933 -0.6249,-1.316 -0.3599,-0.336 -0.8002,-0.504 -1.321,-0.504 -0.2556,0 -0.4971,0.04667 -0.7244,0.14 -0.2178,0.084 -0.4119,0.20534 -0.5823,0.364 -0.1705,0.15867 -0.3125,0.35 -0.4261,0.574 -0.1042,0.224 -0.1657,0.47134 -0.1847,0.742 z"
         fill="#464646"
         id="path13" /><path
         d="M 32.969,11.04 30.81,7.86203 29.7874,8.85603 V 11.04 H 27.8841 V 0.820023 h 1.9033 V 7.02203 l 2.9827,-3.30401 h 2.0312 L 32.0315,6.82603 35.0001,11.04 Z"
         fill="#464646"
         id="path15" /></g><g
       style="fill:none"
       id="g50"
       transform="matrix(1.3749976,0,0,2.2973024,38.439561,1.4161592)"><path
         d="M 4.25681,1.10002 H 5.98967 L 9.82468,11.04 H 7.80774 L 6.8703,8.56203 H 3.34777 L 2.42452,11.04 H 0.407593 Z m 2.25839,6.104 -1.39196,-3.906 -1.44879,3.906 z"
         fill="#2a7ae4"
         id="path29" /><path
         d="m 10.7319,0.820023 h 1.9033 V 8.68803 c 0,0.27066 0.0663,0.48066 0.1989,0.63 0.1326,0.14933 0.3219,0.224 0.5681,0.224 0.1137,0 0.2368,-0.01867 0.3693,-0.056 0.1421,-0.03734 0.2746,-0.084 0.3977,-0.14 l 0.2557,1.42797 c -0.2557,0.1214 -0.5539,0.2147 -0.8948,0.28 -0.3409,0.0654 -0.6487,0.098 -0.9233,0.098 -0.5965,0 -1.0605,-0.154 -1.3919,-0.462 -0.322,-0.3173 -0.483,-0.76531 -0.483,-1.34397 z"
         fill="#2a7ae4"
         id="path31" /><path
         d="m 17.5268,11.18 c -0.767,0 -1.3494,-0.2426 -1.7471,-0.728 C 15.382,9.96669 15.1831,9.24803 15.1831,8.29603 V 3.70402 h 1.9034 v 4.18601 c 0,1.12933 0.4119,1.694 1.2357,1.694 0.3693,0 0.7244,-0.10734 1.0653,-0.322 0.3503,-0.224 0.6344,-0.56 0.8522,-1.008 V 3.70402 h 1.9033 v 5.18 c 0,0.196 0.0331,0.33601 0.0994,0.42001 0.0758,0.084 0.1941,0.13066 0.3551,0.14 V 11.04 c -0.1894,0.0374 -0.3504,0.0607 -0.4829,0.07 -0.1231,0.0094 -0.2368,0.014 -0.3409,0.014 -0.3409,0 -0.6202,-0.0746 -0.838,-0.224 -0.2084,-0.1586 -0.3315,-0.3733 -0.3693,-0.644 L 20.5238,9.66803 C 20.1923,10.172 19.7662,10.55 19.2454,10.802 18.7246,11.054 18.1517,11.18 17.5268,11.18 Z"
         fill="#2a7ae4"
         id="path33" /><path
         d="m 28.466,5.32802 c -0.5776,0.00934 -1.0937,0.12134 -1.5482,0.336 -0.4545,0.20534 -0.7812,0.518 -0.9801,0.938 V 11.04 H 24.0344 V 3.70402 h 1.7471 v 1.568 c 0.1325,-0.252 0.2888,-0.476 0.4687,-0.672 0.1799,-0.20533 0.374,-0.38266 0.5824,-0.532 0.2083,-0.14933 0.4166,-0.26133 0.6249,-0.336 0.2178,-0.084 0.4261,-0.126 0.625,-0.126 0.1041,0 0.1799,0 0.2272,0 0.0569,0 0.1089,0.00467 0.1563,0.014 z"
         fill="#2a7ae4"
         id="path35" /><path
         d="m 31.4613,11.18 c -0.3598,0 -0.696,-0.056 -1.0085,-0.168 -0.3124,-0.1213 -0.5823,-0.2846 -0.8096,-0.49 -0.2272,-0.2146 -0.4071,-0.462 -0.5397,-0.74197 -0.1231,-0.28 -0.1847,-0.588 -0.1847,-0.924 0,-0.34534 0.0758,-0.66267 0.2273,-0.952 0.161,-0.29867 0.3788,-0.55067 0.6534,-0.756 0.284,-0.20534 0.6202,-0.36401 1.0084,-0.47601 0.3883,-0.12133 0.8144,-0.182 1.2784,-0.182 0.3314,0 0.6533,0.028 0.9658,0.084 0.322,0.056 0.606,0.13534 0.8522,0.238 v -0.42 c 0,-0.48533 -0.142,-0.85866 -0.4261,-1.12 -0.2746,-0.26133 -0.6865,-0.392 -1.2357,-0.392 -0.3977,0 -0.7859,0.07 -1.1647,0.21 -0.3788,0.14 -0.767,0.34534 -1.1647,0.616 l -0.5824,-1.19 c 0.9564,-0.62533 1.9886,-0.938 3.0965,-0.938 1.07,0 1.8985,0.26134 2.4856,0.784 0.5966,0.51334 0.8949,1.26 0.8949,2.24 v 2.282 c 0,0.196 0.0331,0.33601 0.0994,0.42001 0.0757,0.084 0.1941,0.13066 0.3551,0.14 V 11.04 c -0.322,0.0654 -0.6013,0.098 -0.838,0.098 -0.3599,0 -0.6392,-0.0793 -0.8381,-0.238 -0.1894,-0.1586 -0.3077,-0.3686 -0.3551,-0.63 L 34.1884,9.86403 C 33.857,10.2934 33.4546,10.62 32.9811,10.844 32.5076,11.068 32.001,11.18 31.4613,11.18 Z M 32.001,9.80803 c 0.322,0 0.625,-0.056 0.9091,-0.168 0.2935,-0.112 0.5208,-0.26134 0.6818,-0.448 0.2083,-0.15867 0.3124,-0.336 0.3124,-0.532 V 7.82002 c -0.2272,-0.084 -0.4734,-0.14933 -0.7385,-0.196 -0.2652,-0.05599 -0.5208,-0.08399 -0.767,-0.08399 -0.4924,0 -0.8949,0.112 -1.2074,0.336 -0.3124,0.21466 -0.4687,0.49 -0.4687,0.826 0,0.31733 0.1231,0.58333 0.3693,0.798 0.2462,0.20533 0.5492,0.308 0.909,0.308 z"
         fill="#2a7ae4"
         id="path37" /></g><g
       style="fill:none"
       id="g61"
       transform="matrix(1.5962478,0,0,1.8367303,-1.0300767,-1.2305988)"><path
         d="M 23.543,13.7717 22.2528,4.835 C 21.9214,2.53666 19.921,0.833328 17.5656,0.833328 H 6.84175 C 4.4863,0.833328 2.48594,2.53666 2.15452,4.835 l -1.290178,8.9367 c -0.260402,1.7966 1.148138,3.395 2.982788,3.395 0.80488,0 1.56241,-0.315 2.13056,-0.875 l 2.67504,-2.625 h 7.10187 l 2.6632,2.625 c 0.5681,0.56 1.3375,0.875 2.1306,0.875 1.8464,0 3.255,-1.5984 2.9946,-3.395 z M 11.02,7.83333 H 8.65273 V 10.1667 H 7.46908 V 7.83333 H 5.10179 V 6.66666 H 7.46908 V 4.33333 H 8.65273 V 6.66666 H 11.02 Z m 4.7346,-1.16667 c -0.651,0 -1.1836,-0.525 -1.1836,-1.16666 0,-0.64167 0.5326,-1.16667 1.1836,-1.16667 0.651,0 1.1836,0.525 1.1836,1.16667 0,0.64166 -0.5326,1.16666 -1.1836,1.16666 z m 2.3673,3.50004 c -0.651,0 -1.1837,-0.52504 -1.1837,-1.1667 0,-0.64167 0.5327,-1.16667 1.1837,-1.16667 0.651,0 1.1836,0.525 1.1836,1.16667 0,0.64166 -0.5326,1.1667 -1.1836,1.1667 z"
         fill="#2a7ae4"
         id="path52" /></g></g></svg>
